<svg version="1.1" id="Layer_1" xmlns="http://www.w3.org/2000/svg" xmlns:xlink="http://www.w3.org/1999/xlink" x="0px" y="0px"
	 width="100%" viewBox="0 0 842 572" enable-background="new 0 0 842 572" xml:space="preserve">
<path fill="#010100" opacity="1.000000" stroke="none" 
	d="
M470.000000,573.000000 
	C313.333344,573.000000 157.166672,573.000000 1.000000,573.000000 
	C1.000000,382.333344 1.000000,191.666672 1.000000,1.000000 
	C281.666656,1.000000 562.333313,1.000000 843.000000,1.000000 
	C843.000000,191.666672 843.000000,382.333344 843.000000,573.000000 
	C718.833313,573.000000 594.666687,573.000000 470.000000,573.000000 
M671.074829,338.689484 
	C671.251709,338.361633 671.428528,338.033813 672.065186,337.256348 
	C672.461670,336.508820 672.858154,335.761261 673.782043,333.921875 
	C672.738220,334.290283 671.694458,334.658691 670.140381,335.361969 
	C669.935547,335.709564 669.730713,336.057159 669.177124,336.668030 
	C668.979614,336.906891 668.891541,337.180969 668.253662,338.290161 
	C668.407166,338.826294 668.560730,339.362457 668.714233,339.898651 
	C669.344910,339.600891 669.975647,339.303131 671.074829,338.689484 
M673.944214,329.877716 
	C673.710754,330.761597 673.477356,331.645508 673.243896,332.529388 
	C673.893127,332.420258 674.542358,332.311127 675.833679,331.774231 
	C676.365356,330.905151 676.897095,330.036072 677.946106,328.751099 
	C680.490173,324.814667 683.034302,320.878265 685.913635,315.434479 
	C685.063721,315.444519 684.213745,315.454559 682.851196,315.898376 
	C680.135742,320.312317 677.420288,324.726257 674.762756,329.162933 
	C674.762756,329.162933 674.737671,329.262634 673.944214,329.877716 
M99.677177,228.383911 
	C99.210121,229.256851 98.743057,230.129791 97.850029,231.564362 
	C96.202621,235.694763 94.555214,239.825150 92.705437,244.200424 
	C92.705437,244.200424 92.743828,244.515747 92.325951,244.755600 
	C92.203957,245.507919 92.081955,246.260239 91.739204,247.481888 
	C91.741043,247.823746 91.742889,248.165588 91.297661,249.037598 
	C91.142128,250.390030 90.986595,251.742447 90.554146,253.895691 
	C90.510117,255.298996 90.466087,256.702301 90.087395,258.714264 
	C90.201088,260.767426 90.314781,262.820557 90.277702,265.713562 
	C90.475883,267.112885 90.674065,268.512177 90.665199,270.538513 
	C91.002563,271.551697 91.339935,272.564850 91.638298,274.310974 
	C92.575043,277.182861 93.511787,280.054718 94.425133,283.528229 
	C94.855888,284.186188 95.286644,284.844177 95.838882,286.158936 
	C97.011292,288.085693 98.183708,290.012421 99.397194,292.511536 
	C99.911842,293.047852 100.426491,293.584167 101.183258,294.752594 
	C107.474327,301.844482 114.379852,308.098053 123.432716,311.560364 
	C147.576370,320.794189 173.378647,313.304047 185.732071,293.351807 
	C191.311005,284.341187 191.903885,274.785736 187.788010,265.138062 
	C183.822449,255.842773 173.037720,251.502930 165.559784,255.794769 
	C177.202850,270.112854 176.323059,286.718628 163.559036,298.921570 
	C147.665390,314.116547 113.668449,310.538879 102.744270,290.719574 
	C101.084953,287.709167 98.574669,285.167786 96.387558,282.419952 
	C96.387558,282.419952 96.350655,282.373260 97.088776,282.191711 
	C96.888901,281.494324 96.689018,280.796906 96.530869,279.500702 
	C95.784554,277.814819 95.038246,276.128937 94.354759,273.948914 
	C94.339760,273.607666 94.237030,273.295227 94.205963,272.552032 
	C93.932945,271.819672 93.659927,271.087280 93.382736,269.497437 
	C93.374672,263.203156 93.366608,256.908844 93.762131,250.333313 
	C93.847130,249.553802 93.932129,248.774292 94.214729,247.377502 
	C94.161537,246.952545 94.108345,246.527573 94.281952,245.448105 
	C96.516396,240.630768 98.750839,235.813416 101.530479,230.575592 
	C101.980774,229.779770 102.431068,228.983948 103.149437,228.064575 
	C103.301414,227.899948 103.331406,227.715469 103.807220,227.131500 
	C114.216141,213.602707 127.749489,205.216797 144.771591,203.264297 
	C153.459671,202.267746 162.268692,202.325455 171.855453,202.020966 
	C173.992722,202.313461 176.152893,202.492172 178.263489,202.917145 
	C190.728516,205.427109 195.320908,210.433640 196.476395,223.061310 
	C196.870148,227.364304 196.896210,231.711288 196.898132,236.038254 
	C196.928467,303.986084 196.933044,371.933899 196.921112,439.881744 
	C196.920288,444.543335 196.936920,449.218567 196.610519,453.863953 
	C195.576355,468.582916 189.938416,474.009247 175.301056,474.731750 
	C173.673981,474.812073 172.060577,475.168640 170.440826,475.397064 
	C170.500137,475.838501 170.559448,476.279968 170.618759,476.721405 
	C200.501404,476.721405 230.384048,476.721405 260.266693,476.721405 
	C260.367340,476.264954 260.467987,475.808533 260.568634,475.352081 
	C252.444290,473.964264 243.298492,475.106598 237.810577,466.358185 
	C237.104645,464.923615 236.398712,463.489014 235.628906,461.417236 
	C235.519028,461.006165 235.409149,460.595093 235.527451,459.431458 
	C235.127579,457.494385 234.727707,455.557312 234.367813,452.731262 
	C234.309555,415.906342 234.251297,379.081390 235.085205,342.039612 
	C237.407028,341.962616 239.728775,341.821594 242.050705,341.818115 
	C281.780762,341.758423 321.510834,341.715729 361.530121,342.484711 
	C361.562653,359.587341 361.573822,376.690002 361.632721,393.792542 
	C361.722534,419.859772 361.845367,445.926880 361.729645,472.662689 
	C362.012512,474.929260 362.295410,477.195801 362.548462,480.308472 
	C362.837311,483.160217 363.126129,486.011993 363.211792,489.557831 
	C363.523804,490.696198 363.835815,491.834564 364.133087,493.701019 
	C364.238098,494.420044 364.343109,495.139099 364.265198,496.565033 
	C364.642456,497.684540 365.019684,498.804016 365.400024,500.571014 
	C365.510803,500.986572 365.621582,501.402100 365.512360,502.436584 
	C365.911377,503.408997 366.310364,504.381378 366.722137,505.917145 
	C366.818665,506.278870 366.915161,506.640594 366.802124,507.400330 
	C367.133942,508.020508 367.465729,508.640686 367.855927,509.930786 
	C368.027771,510.577911 368.199646,511.225037 368.378998,512.604980 
	C369.494171,515.185181 370.609344,517.765320 371.803223,520.994385 
	C372.287994,521.963440 372.772766,522.932556 373.307465,524.584595 
	C374.533051,526.397827 375.758667,528.210999 377.233917,530.585083 
	C377.899963,531.358704 378.566040,532.132385 379.334503,533.539185 
	C380.572357,534.665161 381.810211,535.791138 383.444336,537.458069 
	C398.993469,552.466675 427.721252,552.450439 442.667877,540.688660 
	C439.684967,541.061340 437.627289,541.177490 435.631012,541.590332 
	C422.001556,544.409729 411.673035,539.442810 405.831482,526.739624 
	C403.976746,522.706299 402.648773,518.325867 401.773834,513.964966 
	C398.047302,495.391052 398.528595,476.573456 398.582642,457.743591 
	C398.794342,383.973114 398.725250,310.201843 398.790436,236.430878 
	C398.795441,230.771439 398.808929,225.096100 399.212799,219.456390 
	C399.941315,209.284760 405.618958,203.312103 415.649658,201.801056 
	C418.775757,201.330139 421.929138,201.040176 425.070007,200.667389 
	C425.038116,200.295868 425.006195,199.924332 424.974304,199.552811 
	C395.235413,199.552811 365.496521,199.552811 335.757599,199.552811 
	C335.728485,199.904617 335.699371,200.256439 335.670227,200.608246 
	C339.996582,201.166977 344.322906,201.725693 349.018127,202.835434 
	C351.030853,203.855957 353.043610,204.876480 355.401672,206.361191 
	C355.952850,206.900726 356.504028,207.440262 357.110138,208.502960 
	C357.381683,208.706970 357.653198,208.910980 358.109070,209.710342 
	C358.511414,210.436951 358.913757,211.163559 359.227814,212.539886 
	C359.679657,213.512115 360.131500,214.484344 360.550385,215.978577 
	C360.645416,216.311157 360.740448,216.643738 360.600342,217.637863 
	C360.943512,219.897690 361.286713,222.157532 361.536469,225.297852 
	C361.595367,262.746155 361.654297,300.194427 360.865509,337.989960 
	C359.385101,338.135925 357.904785,338.408630 356.424316,338.409363 
	C317.303986,338.428833 278.183655,338.427765 239.063354,338.390259 
	C237.425552,338.388672 235.788101,338.002686 234.171600,336.884338 
	C234.222748,297.715576 234.273895,258.546783 234.804626,218.872040 
	C235.360550,216.522873 235.916473,214.173691 236.817184,211.198578 
	C239.901596,204.998856 245.278275,202.350494 252.678848,201.711716 
	C255.342117,201.502029 258.005402,201.292343 260.668671,201.082657 
	C260.622375,200.381989 260.576111,199.681335 260.529816,198.980667 
	C258.971313,198.854416 257.412903,198.619354 255.854279,198.617996 
	C226.052368,198.592010 196.250427,198.584473 166.448532,198.611542 
	C164.643387,198.613174 162.838516,198.935150 160.099640,198.993515 
	C154.375031,199.587143 148.647018,200.149796 142.926468,200.780197 
	C125.288513,202.723892 111.784790,211.479187 101.231422,226.142029 
	C100.880127,226.778915 100.528824,227.415802 99.677177,228.383911 
M535.066589,201.120346 
	C533.670898,201.018814 532.275208,200.917282 530.197632,200.554825 
	C529.484253,200.641479 528.770935,200.728134 527.123291,200.664017 
	C505.206238,200.652390 483.289185,200.612808 461.372192,200.645767 
	C454.578918,200.655975 447.785950,200.863235 440.454742,200.914001 
	C439.331055,204.005737 441.321838,203.332779 443.741791,203.179123 
	C444.984863,203.227875 446.227966,203.276611 447.984253,203.810242 
	C450.663605,204.842972 453.342926,205.875717 456.451324,207.376953 
	C457.389984,208.231308 458.328613,209.085663 459.346680,210.515030 
	C459.880280,211.043915 460.413879,211.572815 461.126373,212.583801 
	C461.263580,212.686539 461.400787,212.789291 461.592773,213.502640 
	C462.406464,214.644424 463.220154,215.786194 464.151184,217.463837 
	C464.257263,217.612778 464.363342,217.761703 464.489624,218.551666 
	C465.273346,219.795197 466.057068,221.038727 466.907837,222.884369 
	C467.313263,223.579285 467.718689,224.274185 468.079681,225.708725 
	C469.311401,228.270599 470.543091,230.832474 471.835999,234.086411 
	C472.379425,235.363159 472.922852,236.639923 473.543396,238.610168 
	C474.624420,240.862823 475.705444,243.115494 476.771576,245.724716 
	C476.771576,245.724716 476.983002,246.012222 476.915466,246.632629 
	C477.157501,246.950974 477.399506,247.269318 477.758911,248.250381 
	C478.316986,249.472687 478.875061,250.694992 479.375702,252.599716 
	C480.178864,254.193222 480.982025,255.786728 481.849457,258.079651 
	C482.715942,260.024811 483.582397,261.969971 484.398743,264.595459 
	C485.205597,266.169678 486.012482,267.743896 486.884216,270.025818 
	C487.740448,271.988129 488.596710,273.950439 489.400177,276.591949 
	C490.206390,278.166412 491.012634,279.740845 491.871552,281.909424 
	C492.079346,282.241791 492.287140,282.574158 492.520996,283.625732 
	C493.961884,286.840515 495.402771,290.055328 496.910492,293.992767 
	C497.250732,294.625549 497.590942,295.258362 497.880981,296.576233 
	C499.507843,300.191254 501.134705,303.806274 502.815582,307.961884 
	C502.967468,308.288239 503.119354,308.614594 503.283783,309.667328 
	C504.474121,312.197174 505.664459,314.727020 506.911102,317.919586 
	C507.369659,318.926361 507.828186,319.933167 508.315582,321.672272 
	C509.821655,324.880768 511.327728,328.089294 512.841125,331.680237 
	C512.841125,331.680237 513.058167,331.995209 513.027100,332.752991 
	C514.311646,335.568848 515.596130,338.384705 516.946777,341.873016 
	C517.416992,342.893616 517.887207,343.914215 518.377563,345.646393 
	C519.486816,347.929108 520.596008,350.211823 521.686523,353.103516 
	C521.701050,353.914062 521.715576,354.724640 521.162964,355.938507 
	C506.861084,388.898376 492.559204,421.858246 477.911621,455.614746 
	C475.959320,451.839142 474.598969,449.208374 473.199768,446.033997 
	C473.047791,445.707214 472.895813,445.380402 472.719696,444.327301 
	C471.534027,441.789337 470.348328,439.251373 469.083344,436.006714 
	C468.222137,434.034790 467.360931,432.062836 466.513458,429.384705 
	C465.411865,427.132874 464.310272,424.881073 463.095520,421.910767 
	C446.751373,382.682800 430.407227,343.454834 414.063049,304.226868 
	C413.118744,305.033813 413.002808,305.628082 413.002533,306.222412 
	C412.987579,335.879059 412.962646,365.535736 413.026245,395.192230 
	C413.030029,396.956940 413.493469,398.828491 414.179169,400.467865 
	C427.216339,431.636353 440.319153,462.777344 453.458191,494.631042 
	C454.553894,496.900116 455.649597,499.169189 456.721954,501.762604 
	C456.721954,501.762604 456.926270,502.015656 456.954956,502.621948 
	C457.302490,502.756622 457.650055,502.891296 458.658905,503.210358 
	C459.101837,503.126373 459.544800,503.042389 460.666046,502.897675 
	C461.390015,501.252441 462.113983,499.607208 463.108643,497.543365 
	C463.265320,497.244659 463.357910,496.927246 463.897888,496.222229 
	C463.963318,495.818726 464.028717,495.415192 464.294556,494.772949 
	C464.294556,494.772949 464.270142,494.462189 464.824097,494.042847 
	C467.077179,488.667450 469.330261,483.292053 471.946442,477.307892 
	C472.725342,475.364868 473.504242,473.421844 474.834778,471.068787 
	C475.789154,468.690613 476.743530,466.312439 477.986328,463.453064 
	C478.058868,463.088287 478.131409,462.723480 478.765015,461.958221 
	C479.981293,459.229492 481.219666,456.510345 482.410461,453.770538 
	C495.572174,423.487701 508.710266,393.194611 521.949036,362.945526 
	C522.419434,361.870819 523.866516,361.223541 524.868164,361.093292 
	C525.771667,363.045288 526.738770,364.970612 527.569153,366.953217 
	C540.844788,398.647888 554.250488,430.289307 567.310669,462.072601 
	C575.316956,481.556366 585.758240,500.269867 587.604553,522.622925 
	C589.957947,533.253052 594.922668,542.250000 604.261658,548.579041 
	C604.307007,546.918335 603.690308,545.609497 602.929749,544.390381 
	C599.626099,539.094421 596.030151,533.961487 593.044067,528.494141 
	C591.248657,525.206726 590.380249,521.412964 589.254028,516.961914 
	C588.891235,516.204590 588.528442,515.447205 588.313232,514.273438 
	C588.193970,513.210388 588.074707,512.147278 588.072388,510.444641 
	C588.037292,504.942291 588.002258,499.439941 588.196899,493.494812 
	C588.187988,492.440765 588.179138,491.386749 588.874817,489.865723 
	C588.999084,489.045349 589.123413,488.224976 589.684875,486.844208 
	C589.872437,485.188110 590.059998,483.532043 590.502258,481.249115 
	C590.528381,480.801941 590.554443,480.354767 591.048767,479.334412 
	C591.550415,476.857880 592.052063,474.381378 592.837280,471.257629 
	C592.986816,470.328827 593.136292,469.400024 593.819946,468.001190 
	C595.104248,463.975647 596.388550,459.950104 597.948303,455.400848 
	C598.011902,455.013397 598.075500,454.625916 598.556763,454.046844 
	C598.715698,453.361969 598.874634,452.677063 599.195007,451.373962 
	C599.476440,450.604401 599.757812,449.834839 600.326599,448.447601 
	C600.990540,447.528839 601.823669,446.688873 602.293579,445.679718 
	C613.274597,422.096832 627.288818,400.363708 642.448242,379.301300 
	C651.158264,367.199524 659.567810,354.881409 668.788635,342.058136 
	C669.144836,341.006287 669.501038,339.954437 669.857178,338.902588 
	C669.448975,338.689148 669.040710,338.475677 668.632507,338.262207 
	C667.850037,339.193848 667.067627,340.125488 665.724792,341.479248 
	C655.211365,356.240692 644.221008,370.690308 634.310425,385.846008 
	C623.047180,403.070435 612.753845,420.928925 602.022888,438.502014 
	C601.092224,440.026062 600.606262,442.876465 597.871826,439.589508 
	C597.777222,439.422394 597.682617,439.255310 597.536194,438.379791 
	C596.446350,436.105438 595.356567,433.831055 594.203125,430.874359 
	C593.678040,429.609100 593.153015,428.343811 592.552002,426.354126 
	C591.083801,423.151947 589.615662,419.949738 588.057922,416.015961 
	C576.562500,388.307587 565.071777,360.597290 553.568481,332.892181 
	C550.391663,325.240845 547.177673,317.604889 544.302185,309.370544 
	C544.813477,308.734619 545.500671,308.174103 545.810364,307.451721 
	C553.165405,290.296509 560.479797,273.123871 568.078674,255.365372 
	C568.064087,254.935104 568.049438,254.504837 568.268555,253.748383 
	C568.360046,253.497589 568.466614,253.253403 569.034607,252.816498 
	C569.034607,252.816498 569.192688,252.353973 569.536621,251.885040 
	C569.834106,250.665695 570.131653,249.446350 571.056458,247.811554 
	C571.379883,246.892395 571.703369,245.973251 572.217224,244.745773 
	C572.281189,244.513321 572.339600,244.279510 573.017212,243.763321 
	C573.405640,242.953262 573.794006,242.143188 574.690186,240.950180 
	C575.269897,239.602081 575.849609,238.253983 576.851685,236.305786 
	C579.581482,231.898483 582.311279,227.491165 585.590027,222.864670 
	C586.006592,222.221970 586.423157,221.579269 587.414307,220.578964 
	C591.252625,217.249985 595.091003,213.921005 599.555420,210.518921 
	C600.754700,209.706024 601.953918,208.893127 603.861267,207.934204 
	C605.875000,207.060898 607.888794,206.187592 610.457520,205.448486 
	C610.937866,205.176651 611.418213,204.904831 612.590027,204.655457 
	C613.027954,204.521149 613.465942,204.386841 614.584656,204.438660 
	C615.914246,204.069763 617.243774,203.700851 619.423706,203.428040 
	C623.276367,203.260086 627.129089,203.092148 631.492798,202.982010 
	C631.334656,202.298965 631.176514,201.615921 630.109680,200.674133 
	C603.059631,200.740433 576.009521,200.806732 548.298279,201.018478 
	C548.535706,201.665405 548.773193,202.312347 549.898987,203.136429 
	C553.418823,203.195206 556.938660,203.253983 560.944519,203.747467 
	C561.997559,203.876160 563.050598,204.004837 564.775452,204.493881 
	C572.869934,208.016876 576.406433,212.926071 575.520630,221.559677 
	C574.935181,227.265137 573.122192,232.892563 571.427429,238.422699 
	C569.763672,243.851364 567.554626,249.112900 565.071167,254.921371 
	C557.721863,271.714355 550.372620,288.507385 542.808838,305.790497 
	C541.342529,303.324371 540.260620,301.504639 539.154724,299.102051 
	C538.980957,298.759918 538.807190,298.417786 538.580811,297.354553 
	C537.106934,294.143677 535.633057,290.932800 534.120178,287.060577 
	C533.665222,286.059052 533.210205,285.057526 532.752258,283.314148 
	C531.259583,280.053864 529.766968,276.793579 528.154785,272.857574 
	C527.610046,271.602264 527.065369,270.346985 526.558411,268.415131 
	C525.761719,266.846039 524.965027,265.276947 524.115479,263.050201 
	C523.662537,262.051208 523.209656,261.052185 522.768250,259.324646 
	C521.564087,256.794403 520.359924,254.264130 519.083862,251.025314 
	C518.239624,249.043091 517.395386,247.060867 516.576843,244.357040 
	C515.445618,241.800659 514.314331,239.244293 513.150635,236.116333 
	C513.010986,235.763336 512.871338,235.410339 512.757385,234.331833 
	C512.053955,232.585709 511.350494,230.839569 510.638336,228.405472 
	C510.488159,227.974838 510.337952,227.544220 510.383698,226.402695 
	C510.009888,224.788208 509.636078,223.173721 509.412415,220.894501 
	C509.377838,219.762970 509.343262,218.631454 509.747742,216.967087 
	C510.327087,214.945145 510.906403,212.923218 511.928436,210.346451 
	C514.582886,208.275726 517.237305,206.204987 520.503296,204.314301 
	C521.480835,203.963013 522.458435,203.611740 524.193237,203.358322 
	C525.460022,203.251007 526.726746,203.143677 528.673462,203.259415 
	C530.916565,202.810455 533.159607,202.361496 535.066589,201.120346 
M690.345581,301.971222 
	C690.083313,302.675446 689.820984,303.379669 689.136414,304.598541 
	C688.692078,305.603607 688.247742,306.608643 687.290771,307.908203 
	C687.028076,308.631317 686.765381,309.354462 685.739380,310.975220 
	C685.582397,312.222412 685.425354,313.469604 685.268311,314.716797 
	C685.709106,314.840302 686.149902,314.963806 686.590698,315.087341 
	C687.453491,313.841766 688.316284,312.596222 689.710266,311.062683 
	C690.040466,310.357635 690.370605,309.652588 691.241699,308.478607 
	C696.234131,299.726624 701.397339,291.066895 706.185242,282.204407 
	C717.972778,260.385620 725.971619,237.455917 725.926208,212.275467 
	C725.890442,192.415802 722.437134,173.393066 710.990967,156.689178 
	C694.742737,132.977386 671.713074,121.286568 643.282776,120.335930 
	C614.651184,119.378555 589.838562,128.402969 570.548950,150.286865 
	C561.704407,160.320969 556.328308,171.969849 556.022217,185.570557 
	C555.985168,187.218399 556.824280,188.885971 557.257324,190.544403 
	C557.833801,190.487274 558.410278,190.430161 558.986755,190.373032 
	C560.596497,172.134766 570.900269,159.937134 585.897217,151.170227 
	C602.735901,141.326630 621.110840,137.012955 640.477661,137.739258 
	C665.934875,138.694000 687.210999,148.110123 700.945007,170.641113 
	C709.428223,184.558044 711.765259,200.257523 712.111755,216.220047 
	C712.770752,246.580017 703.449585,274.529541 690.345581,301.971222 
M686.000000,314.499969 
	C685.800049,314.366638 685.600037,314.233307 685.400085,314.100006 
	C685.433411,314.399994 685.466736,314.700012 686.000000,314.499969 
z"/>
<path fill="#DEC072" opacity="1.000000" stroke="none" 
	d="
M361.954224,471.994019 
	C361.845367,445.926880 361.722534,419.859772 361.632721,393.792542 
	C361.573822,376.690002 361.562653,359.587341 361.520264,341.760681 
	C361.578003,339.905334 361.645599,338.774048 361.713196,337.642731 
	C361.654297,300.194427 361.595367,262.746155 361.739502,224.432922 
	C361.573517,221.370758 361.204529,219.173538 360.835510,216.976318 
	C360.740448,216.643738 360.645416,216.311157 360.689209,215.380890 
	C360.324066,213.818863 359.820068,212.854523 359.316101,211.890167 
	C358.913757,211.163559 358.511414,210.436951 357.999023,209.146118 
	C357.611053,208.381180 357.333130,208.180481 357.055206,207.979782 
	C356.504028,207.440262 355.952850,206.900726 355.145233,205.795929 
	C352.808929,204.248596 350.729095,203.266510 348.649231,202.284424 
	C344.322906,201.725693 339.996582,201.166977 335.670227,200.608246 
	C335.699371,200.256439 335.728485,199.904617 335.757599,199.552811 
	C365.496521,199.552811 395.235413,199.552811 424.974304,199.552811 
	C425.006195,199.924332 425.038116,200.295868 425.070007,200.667389 
	C421.929138,201.040176 418.775757,201.330139 415.649658,201.801056 
	C405.618958,203.312103 399.941315,209.284760 399.212799,219.456390 
	C398.808929,225.096100 398.795441,230.771439 398.790436,236.430878 
	C398.725250,310.201843 398.794342,383.973114 398.582642,457.743591 
	C398.528595,476.573456 398.047302,495.391052 401.773834,513.964966 
	C402.648773,518.325867 403.976746,522.706299 405.831482,526.739624 
	C411.673035,539.442810 422.001556,544.409729 435.631012,541.590332 
	C437.627289,541.177490 439.684967,541.061340 442.667877,540.688660 
	C427.721252,552.450439 398.993469,552.466675 383.201080,536.865112 
	C381.715912,535.150146 380.473999,534.028076 379.232117,532.906067 
	C378.566040,532.132385 377.899963,531.358704 377.105133,529.955078 
	C375.736725,527.517273 374.497131,525.709412 373.257507,523.901611 
	C372.772766,522.932556 372.287994,521.963440 371.812592,520.288330 
	C370.671814,517.012268 369.521637,514.442200 368.371490,511.872162 
	C368.199646,511.225037 368.027771,510.577911 367.891479,509.280334 
	C367.621887,508.087372 367.316772,507.544830 367.011688,507.002319 
	C366.915161,506.640594 366.818665,506.278870 366.820129,505.318237 
	C366.522888,503.752075 366.127625,502.784851 365.732361,501.817627 
	C365.621582,501.402100 365.510803,500.986572 365.572571,500.003418 
	C365.312805,498.243225 364.880463,497.050690 364.448120,495.858124 
	C364.343109,495.139099 364.238098,494.420044 364.313354,493.089661 
	C364.134094,491.273468 363.774536,490.068604 363.414978,488.863739 
	C363.126129,486.011993 362.837311,483.160217 362.719055,479.464111 
	C362.577850,476.411163 362.266052,474.202576 361.954224,471.994019 
z"/>
<path fill="#DEC072" opacity="1.000000" stroke="none" 
	d="
M508.286682,320.939972 
	C507.828186,319.933167 507.369659,318.926361 506.937927,317.203644 
	C505.733582,313.972107 504.502411,311.456512 503.271240,308.940948 
	C503.119354,308.614594 502.967468,308.288239 502.816711,307.301727 
	C501.188934,303.058105 499.560028,299.474640 497.931152,295.891174 
	C497.590942,295.258362 497.250732,294.625549 496.904602,293.244141 
	C495.430817,289.299164 493.962860,286.102844 492.494934,282.906525 
	C492.287140,282.574158 492.079346,282.241791 491.883240,281.255310 
	C491.080963,279.038361 490.266937,277.475555 489.452942,275.912750 
	C488.596710,273.950439 487.740448,271.988129 486.889679,269.314331 
	C486.079712,267.040253 485.264282,265.477692 484.448853,263.915161 
	C483.582397,261.969971 482.715942,260.024811 481.862030,257.368958 
	C481.060791,255.077957 480.246948,253.497635 479.433105,251.917313 
	C478.875061,250.694992 478.316986,249.472687 477.698792,247.620026 
	C477.420135,246.663849 477.201569,246.338043 476.983002,246.012222 
	C476.983002,246.012222 476.771576,245.724716 476.815430,245.168549 
	C475.728271,242.380463 474.597290,240.148575 473.466248,237.916687 
	C472.922852,236.639923 472.379425,235.363159 471.839294,233.350449 
	C470.603088,230.066025 469.363617,227.517548 468.124084,224.969086 
	C467.718689,224.274185 467.313263,223.579285 466.908752,222.243515 
	C466.096252,220.371979 465.282837,219.141312 464.469421,217.910645 
	C464.363342,217.761703 464.257263,217.612778 464.121887,216.867844 
	C463.241058,215.145248 462.389526,214.018646 461.537994,212.892044 
	C461.400787,212.789291 461.263580,212.686539 461.031433,212.037781 
	C460.380066,210.974503 459.823669,210.457260 459.267273,209.940033 
	C458.328613,209.085663 457.389984,208.231308 456.135437,206.807144 
	C453.036713,205.266678 450.253876,204.296021 447.471039,203.325363 
	C446.227966,203.276611 444.984863,203.227875 443.181824,202.889465 
	C442.078857,202.059967 441.535858,201.520126 440.992828,200.980286 
	C447.785950,200.863235 454.578918,200.655975 461.372192,200.645767 
	C483.289185,200.612808 505.206238,200.652390 527.614258,201.110016 
	C528.067932,202.049438 528.030701,202.542892 527.993530,203.036346 
	C526.726746,203.143677 525.460022,203.251007 523.497070,203.202286 
	C521.831116,203.408920 520.861450,203.771576 519.891724,204.134247 
	C517.237305,206.204987 514.582886,208.275726 511.391785,210.770172 
	C510.339630,213.295898 509.824158,215.397919 509.308685,217.499924 
	C509.343262,218.631454 509.377838,219.762970 509.224060,221.600677 
	C509.419708,223.909103 509.803741,225.511337 510.187805,227.113586 
	C510.337952,227.544220 510.488159,227.974838 510.476562,229.015350 
	C511.120392,231.435928 511.926056,233.246628 512.731689,235.057343 
	C512.871338,235.410339 513.010986,235.763336 513.136719,236.784271 
	C514.265625,239.994354 515.408386,242.536499 516.551208,245.078629 
	C517.395386,247.060867 518.239624,249.043091 519.064148,251.764648 
	C520.281860,255.020370 521.519287,257.536774 522.756714,260.053192 
	C523.209656,261.052185 523.662537,262.051208 524.101624,263.734772 
	C524.898743,265.976776 525.709656,267.534241 526.520630,269.091675 
	C527.065369,270.346985 527.610046,271.602264 528.186890,273.587219 
	C529.731018,277.563232 531.243103,280.809631 532.755188,284.056000 
	C533.210205,285.057526 533.665222,286.059052 534.112488,287.779663 
	C535.614380,291.691040 537.123901,294.883362 538.633484,298.075653 
	C538.807190,298.417786 538.980957,298.759918 539.133911,299.776184 
	C540.028748,302.462067 540.906738,306.164307 541.866699,306.185669 
	C545.538635,306.267487 543.717834,308.532257 543.980713,309.961884 
	C547.177673,317.604889 550.391663,325.240845 553.568481,332.892181 
	C565.071777,360.597290 576.562500,388.307587 588.083496,416.768127 
	C589.615356,420.706360 591.121643,423.892456 592.627930,427.078552 
	C593.153015,428.343811 593.678040,429.609100 594.192627,431.597504 
	C595.317505,434.576508 596.452759,436.832397 597.588074,439.088257 
	C597.682617,439.255310 597.777222,439.422394 597.867920,440.237244 
	C598.814636,443.551758 602.009766,445.621704 600.039246,449.065277 
	C599.757812,449.834839 599.476440,450.604401 598.893677,451.912537 
	C598.441345,453.046906 598.290283,453.642700 598.139160,454.238464 
	C598.075500,454.625916 598.011902,455.013397 597.496826,455.793945 
	C595.792175,460.281799 594.539001,464.376526 593.285828,468.471252 
	C593.136292,469.400024 592.986816,470.328827 592.394226,471.723724 
	C591.494324,474.762390 591.037415,477.334991 590.580505,479.907593 
	C590.554443,480.354767 590.528381,480.801941 590.109924,481.799957 
	C589.560974,484.035400 589.404358,485.720001 589.247681,487.404602 
	C589.123413,488.224976 588.999084,489.045349 588.376099,490.368805 
	C587.907288,491.893799 587.937256,492.915680 587.967224,493.937592 
	C588.002258,499.439941 588.037292,504.942291 587.922485,511.063202 
	C587.903625,512.684448 588.034607,513.687195 588.165649,514.689880 
	C588.528442,515.447205 588.891235,516.204590 589.063599,517.745483 
	C589.103516,519.935974 589.333923,521.342834 589.589050,522.901062 
	C588.756042,522.541321 588.040405,522.232300 587.324768,521.923279 
	C585.758240,500.269867 575.316956,481.556366 567.310669,462.072601 
	C554.250488,430.289307 540.844788,398.647888 527.569153,366.953217 
	C526.738770,364.970612 525.771667,363.045288 524.791138,360.353149 
	C523.719421,358.253723 522.724731,356.894470 521.730103,355.535187 
	C521.715576,354.724640 521.701050,353.914062 521.742004,352.417419 
	C520.650818,349.465820 519.504150,347.200317 518.357483,344.934814 
	C517.887207,343.914215 517.416992,342.893616 516.963501,341.153198 
	C515.672852,337.620636 514.365540,334.807922 513.058167,331.995209 
	C513.058167,331.995209 512.841125,331.680237 512.858582,331.101929 
	C511.346252,327.329071 509.816467,324.134521 508.286682,320.939972 
z"/>
<path fill="#DFC173" opacity="1.000000" stroke="none" 
	d="
M251.823517,201.512558 
	C245.278275,202.350494 239.901596,204.998856 236.327652,211.663086 
	C235.333755,214.544403 234.829391,216.961212 234.325043,219.378021 
	C234.273895,258.546783 234.222748,297.715576 234.113037,337.784912 
	C234.100662,339.875824 234.146851,341.066132 234.193024,342.256470 
	C234.251297,379.081390 234.309555,415.906342 234.207733,453.562256 
	C234.464844,456.323517 234.882050,458.253784 235.299255,460.184021 
	C235.409149,460.595093 235.519028,461.006165 235.514191,461.991547 
	C236.220520,464.063721 237.041550,465.561584 237.862610,467.059418 
	C243.298492,475.106598 252.444290,473.964264 260.568634,475.352081 
	C260.467987,475.808533 260.367340,476.264954 260.266693,476.721405 
	C230.384048,476.721405 200.501404,476.721405 170.618759,476.721405 
	C170.559448,476.279968 170.500137,475.838501 170.440826,475.397064 
	C172.060577,475.168640 173.673981,474.812073 175.301056,474.731750 
	C189.938416,474.009247 195.576355,468.582916 196.610519,453.863953 
	C196.936920,449.218567 196.920288,444.543335 196.921112,439.881744 
	C196.933044,371.933899 196.928467,303.986084 196.898132,236.038254 
	C196.896210,231.711288 196.870148,227.364304 196.476395,223.061310 
	C195.320908,210.433640 190.728516,205.427109 178.263489,202.917145 
	C176.152893,202.492172 173.992722,202.313461 171.408844,201.645294 
	C170.971191,200.843430 170.980179,200.417221 171.458801,199.992203 
	C196.588715,199.992935 221.249146,199.957840 245.909027,200.057816 
	C247.882446,200.065796 249.852112,201.005722 251.823517,201.512558 
z"/>
<path fill="#DDC072" opacity="1.000000" stroke="none" 
	d="
M464.270142,494.462189 
	C464.270142,494.462189 464.294556,494.772949 463.981750,495.106934 
	C463.574768,495.824310 463.480591,496.207733 463.386414,496.591125 
	C463.357910,496.927246 463.265320,497.244659 462.665039,497.862671 
	C461.476868,499.774139 460.732300,501.366272 459.987732,502.958405 
	C459.544800,503.042389 459.101837,503.126373 458.193237,502.906769 
	C457.460480,502.407349 457.193359,502.211487 456.926270,502.015656 
	C456.926270,502.015656 456.721954,501.762604 456.775940,501.221863 
	C455.689392,498.428772 454.548859,496.176422 453.408356,493.924072 
	C440.319153,462.777344 427.216339,431.636353 414.179169,400.467865 
	C413.493469,398.828491 413.030029,396.956940 413.026245,395.192230 
	C412.962646,365.535736 412.987579,335.879059 413.002533,306.222412 
	C413.002808,305.628082 413.118744,305.033813 414.063049,304.226868 
	C430.407227,343.454834 446.751373,382.682800 463.129639,422.644073 
	C464.275726,425.615234 465.387726,427.853058 466.499695,430.090912 
	C467.360931,432.062836 468.222137,434.034790 469.090607,436.743500 
	C470.313202,440.004730 471.528534,442.529175 472.743866,445.053619 
	C472.895813,445.380402 473.047791,445.707214 473.194763,446.696228 
	C474.850616,450.799561 476.511505,454.240662 478.172394,457.681793 
	C478.562683,457.506958 478.952972,457.332153 479.343262,457.157318 
	C478.963501,458.891113 478.583740,460.624908 478.203979,462.358704 
	C478.131409,462.723480 478.058868,463.088287 477.527893,463.817017 
	C476.140686,466.613586 475.211884,469.046173 474.283081,471.478790 
	C473.504242,473.421844 472.725342,475.364868 471.463135,477.743103 
	C468.743256,483.606262 466.506714,489.034210 464.270142,494.462189 
z"/>
<path fill="#D9BC6F" opacity="1.000000" stroke="none" 
	d="
M687.803345,307.613678 
	C688.247742,306.608643 688.692078,305.603607 689.621338,304.206604 
	C690.338806,303.080292 690.571289,302.345947 690.803833,301.611603 
	C703.449585,274.529541 712.770752,246.580017 712.111755,216.220047 
	C711.765259,200.257523 709.428223,184.558044 700.945007,170.641113 
	C687.210999,148.110123 665.934875,138.694000 640.477661,137.739258 
	C621.110840,137.012955 602.735901,141.326630 585.897217,151.170227 
	C570.900269,159.937134 560.596497,172.134766 558.986755,190.373032 
	C558.410278,190.430161 557.833801,190.487274 557.257324,190.544403 
	C556.824280,188.885971 555.985168,187.218399 556.022217,185.570557 
	C556.328308,171.969849 561.704407,160.320969 570.548950,150.286865 
	C589.838562,128.402969 614.651184,119.378555 643.282776,120.335930 
	C671.713074,121.286568 694.742737,132.977386 710.990967,156.689178 
	C722.437134,173.393066 725.890442,192.415802 725.926208,212.275467 
	C725.971619,237.455917 717.972778,260.385620 706.185242,282.204407 
	C701.397339,291.066895 696.234131,299.726624 690.678833,308.825531 
	C689.803650,309.898499 689.491333,310.624573 689.179077,311.350647 
	C688.316284,312.596222 687.453491,313.841766 686.590698,315.087341 
	C686.149902,314.963806 685.709106,314.840302 685.268311,314.716797 
	C685.425354,313.469604 685.582397,312.222412 686.389648,310.387024 
	C687.294434,309.070435 687.548889,308.342072 687.803345,307.613678 
z"/>
<path fill="#D7BA6D" opacity="1.000000" stroke="none" 
	d="
M96.458008,282.409454 
	C98.574669,285.167786 101.084953,287.709167 102.744270,290.719574 
	C113.668449,310.538879 147.665390,314.116547 163.559036,298.921570 
	C176.323059,286.718628 177.202850,270.112854 165.559784,255.794769 
	C173.037720,251.502930 183.822449,255.842773 187.788010,265.138062 
	C191.903885,274.785736 191.311005,284.341187 185.732071,293.351807 
	C173.378647,313.304047 147.576370,320.794189 123.432716,311.560364 
	C114.379852,308.098053 107.474327,301.844482 101.050468,294.140594 
	C100.397163,292.998779 99.876648,292.468994 99.356125,291.939178 
	C98.183708,290.012421 97.011292,288.085693 95.952957,285.054810 
	C96.197357,283.436951 96.327682,282.923218 96.458008,282.409454 
z"/>
<path fill="#D8BB6D" opacity="1.000000" stroke="none" 
	d="
M598.929321,210.592026 
	C595.091003,213.921005 591.252625,217.249985 586.830566,220.838257 
	C585.844849,221.759644 585.442993,222.421753 585.041077,223.083862 
	C582.311279,227.491165 579.581482,231.898483 576.347290,236.741119 
	C575.289429,238.562012 574.735901,239.947571 574.182373,241.333130 
	C573.794006,242.143188 573.405640,242.953262 572.547363,244.024384 
	C571.917175,244.532166 571.900269,244.788376 572.026794,245.054092 
	C571.703369,245.973251 571.379883,246.892395 570.536011,248.235809 
	C569.741272,249.891373 569.466980,251.122665 569.192688,252.353973 
	C569.192688,252.353973 569.034607,252.816498 568.620728,253.026031 
	C567.993530,253.483185 567.936218,253.762848 568.034851,254.074570 
	C568.049438,254.504837 568.064087,254.935104 567.614380,255.551819 
	C566.628357,255.308105 566.106628,254.877945 565.584900,254.447784 
	C567.554626,249.112900 569.763672,243.851364 571.427429,238.422699 
	C573.122192,232.892563 574.935181,227.265137 575.520630,221.559677 
	C576.406433,212.926071 572.869934,208.016876 564.221252,204.063263 
	C562.597534,203.526001 561.528015,203.419388 560.458496,203.312775 
	C556.938660,203.253983 553.418823,203.195206 549.447876,202.700226 
	C548.984314,201.800354 548.971863,201.336685 548.959473,200.873032 
	C576.009521,200.806732 603.059631,200.740433 630.552368,201.135315 
	C630.990601,202.039047 630.986145,202.481628 630.981750,202.924194 
	C627.129089,203.092148 623.276367,203.260086 618.639038,203.268814 
	C616.537537,203.490570 615.220703,203.871552 613.903870,204.252533 
	C613.465942,204.386841 613.027954,204.521149 612.077148,204.502136 
	C611.010376,204.670624 610.456421,204.992447 609.902527,205.314270 
	C607.888794,206.187592 605.875000,207.060898 603.171143,207.995300 
	C601.297119,208.901596 600.113220,209.746811 598.929321,210.592026 
z"/>
<path fill="#9E8952" opacity="1.000000" stroke="none" 
	d="
M234.639114,342.148041 
	C234.146851,341.066132 234.100662,339.875824 234.102493,338.240662 
	C235.788101,338.002686 237.425552,338.388672 239.063354,338.390259 
	C278.183655,338.427765 317.303986,338.428833 356.424316,338.409363 
	C357.904785,338.408630 359.385101,338.135925 361.289368,337.816345 
	C361.645599,338.774048 361.578003,339.905334 361.375671,341.352966 
	C321.510834,341.715729 281.780762,341.758423 242.050705,341.818115 
	C239.728775,341.821594 237.407028,341.962616 234.639114,342.148041 
z"/>
<path fill="#B69C5A" opacity="1.000000" stroke="none" 
	d="
M600.182922,448.756439 
	C602.009766,445.621704 598.814636,443.551758 597.892212,440.524231 
	C600.606262,442.876465 601.092224,440.026062 602.022888,438.502014 
	C612.753845,420.928925 623.047180,403.070435 634.310425,385.846008 
	C644.221008,370.690308 655.211365,356.240692 666.452881,341.679260 
	C667.491516,342.139771 667.802063,342.400238 668.112610,342.660706 
	C659.567810,354.881409 651.158264,367.199524 642.448242,379.301300 
	C627.288818,400.363708 613.274597,422.096832 602.293579,445.679718 
	C601.823669,446.688873 600.990540,447.528839 600.182922,448.756439 
z"/>
<path fill="#B89E5C" opacity="1.000000" stroke="none" 
	d="
M478.484497,462.158447 
	C478.583740,460.624908 478.963501,458.891113 479.343262,457.157318 
	C478.952972,457.332153 478.562683,457.506958 478.172394,457.681793 
	C476.511505,454.240662 474.850616,450.799561 473.214172,446.968018 
	C474.598969,449.208374 475.959320,451.839142 477.911621,455.614746 
	C492.559204,421.858246 506.861084,388.898376 521.446533,355.736847 
	C522.724731,356.894470 523.719421,358.253723 524.786194,359.995026 
	C523.866516,361.223541 522.419434,361.870819 521.949036,362.945526 
	C508.710266,393.194611 495.572174,423.487701 482.410461,453.770538 
	C481.219666,456.510345 479.981293,459.229492 478.484497,462.158447 
z"/>
<path fill="#B99F5C" opacity="1.000000" stroke="none" 
	d="
M170.989151,199.991028 
	C170.980179,200.417221 170.971191,200.843430 170.992630,201.588135 
	C162.268692,202.325455 153.459671,202.267746 144.771591,203.264297 
	C127.749489,205.216797 114.216141,213.602707 103.303101,227.016708 
	C102.437386,226.556351 102.075798,226.210785 101.714203,225.865219 
	C111.784790,211.479187 125.288513,202.723892 142.926468,200.780197 
	C148.647018,200.149796 154.375031,199.587143 160.903534,199.263214 
	C164.801331,199.685638 167.895233,199.838333 170.989151,199.991028 
z"/>
<path fill="#B79D5C" opacity="1.000000" stroke="none" 
	d="
M565.328003,254.684570 
	C566.106628,254.877945 566.628357,255.308105 567.475830,255.846344 
	C560.479797,273.123871 553.165405,290.296509 545.810364,307.451721 
	C545.500671,308.174103 544.813477,308.734619 544.141479,309.666199 
	C543.717834,308.532257 545.538635,306.267487 541.866699,306.185669 
	C540.906738,306.164307 540.028748,302.462067 539.145874,300.067627 
	C540.260620,301.504639 541.342529,303.324371 542.808838,305.790497 
	C550.372620,288.507385 557.721863,271.714355 565.328003,254.684570 
z"/>
<path fill="#9D874D" opacity="1.000000" stroke="none" 
	d="
M171.458801,199.992203 
	C167.895233,199.838333 164.801331,199.685638 161.370468,199.320496 
	C162.838516,198.935150 164.643387,198.613174 166.448532,198.611542 
	C196.250427,198.584473 226.052368,198.592010 255.854279,198.617996 
	C257.412903,198.619354 258.971313,198.854416 260.529816,198.980667 
	C260.576111,199.681335 260.622375,200.381989 260.668671,201.082657 
	C258.005402,201.292343 255.342117,201.502029 252.251190,201.612137 
	C249.852112,201.005722 247.882446,200.065796 245.909027,200.057816 
	C221.249146,199.957840 196.588715,199.992935 171.458801,199.992203 
z"/>
<path fill="#B59B5A" opacity="1.000000" stroke="none" 
	d="
M587.464661,522.273071 
	C588.040405,522.232300 588.756042,522.541321 589.589050,522.901062 
	C589.333923,521.342834 589.103516,519.935974 588.984253,518.187866 
	C590.380249,521.412964 591.248657,525.206726 593.044067,528.494141 
	C596.030151,533.961487 599.626099,539.094421 602.929749,544.390381 
	C603.690308,545.609497 604.307007,546.918335 604.261658,548.579041 
	C594.922668,542.250000 589.957947,533.253052 587.464661,522.273071 
z"/>
<path fill="#D7BA6D" opacity="1.000000" stroke="none" 
	d="
M92.743820,244.515747 
	C92.743828,244.515747 92.705437,244.200424 93.004242,244.312408 
	C93.553741,244.983810 93.804443,245.543213 94.055145,246.102615 
	C94.108345,246.527573 94.161537,246.952545 93.897125,247.966156 
	C93.505859,249.241379 93.432198,249.927979 93.358543,250.614563 
	C93.366608,256.908844 93.374672,263.203156 93.310944,270.281097 
	C93.508286,271.713715 93.777428,272.362671 94.046577,273.011627 
	C94.237030,273.295227 94.339760,273.607666 94.273712,274.599182 
	C94.958168,276.866119 95.723656,278.482819 96.489136,280.099518 
	C96.689018,280.796906 96.888901,281.494324 96.419281,282.441742 
	C95.316032,282.770050 94.882278,282.848328 94.448524,282.926605 
	C93.511787,280.054718 92.575043,277.182861 91.756592,273.616455 
	C91.540672,271.918488 91.206459,270.914978 90.872238,269.911499 
	C90.674065,268.512177 90.475883,267.112885 90.535431,264.994171 
	C90.669464,262.218384 90.545753,260.162018 90.422058,258.105621 
	C90.466087,256.702301 90.510117,255.298996 90.945984,253.260071 
	C91.473450,251.252121 91.609093,249.879791 91.744728,248.507446 
	C91.742889,248.165588 91.741043,247.823746 92.071350,246.985306 
	C92.516945,245.831070 92.630386,245.173401 92.743820,244.515747 
z"/>
<path fill="#B99F5D" opacity="1.000000" stroke="none" 
	d="
M94.168549,245.775360 
	C93.804443,245.543213 93.553741,244.983810 93.105423,244.189972 
	C94.555214,239.825150 96.202621,235.694763 98.401657,231.282623 
	C99.630623,230.999298 100.307945,230.997681 100.985275,230.996078 
	C98.750839,235.813416 96.516396,240.630768 94.168549,245.775360 
z"/>
<path fill="#BDA25D" opacity="1.000000" stroke="none" 
	d="
M674.704834,329.140198 
	C677.420288,324.726257 680.135742,320.312317 683.446655,315.978394 
	C684.554199,316.352875 685.066284,316.647339 685.578369,316.941833 
	C683.034302,320.878265 680.490173,324.814667 677.006348,328.948792 
	C675.612732,329.144348 675.158752,329.142273 674.704834,329.140198 
z"/>
<path fill="#B89E5C" opacity="1.000000" stroke="none" 
	d="
M464.547119,494.252502 
	C466.506714,489.034210 468.743256,483.606262 471.281555,478.047485 
	C469.330261,483.292053 467.077179,488.667450 464.547119,494.252502 
z"/>
<path fill="#B69C5A" opacity="1.000000" stroke="none" 
	d="
M593.552917,468.236206 
	C594.539001,464.376526 595.792175,460.281799 597.359131,456.055786 
	C596.388550,459.950104 595.104248,463.975647 593.552917,468.236206 
z"/>
<path fill="#B89E5C" opacity="1.000000" stroke="none" 
	d="
M497.906067,296.233704 
	C499.560028,299.474640 501.188934,303.058105 502.789673,307.031433 
	C501.134705,303.806274 499.507843,300.191254 497.906067,296.233704 
z"/>
<path fill="#B69C5A" opacity="1.000000" stroke="none" 
	d="
M592.589966,426.716339 
	C591.121643,423.892456 589.615356,420.706360 588.128296,417.133911 
	C589.615662,419.949738 591.083801,423.151947 592.589966,426.716339 
z"/>
<path fill="#B89E5C" opacity="1.000000" stroke="none" 
	d="
M528.333496,203.147888 
	C528.030701,202.542892 528.067932,202.049438 528.081360,201.185394 
	C528.770935,200.728134 529.484253,200.641479 530.834900,200.957916 
	C532.782349,201.544861 534.092529,201.728699 535.402710,201.912537 
	C533.159607,202.361496 530.916565,202.810455 528.333496,203.147888 
z"/>
<path fill="#B89E5C" opacity="1.000000" stroke="none" 
	d="
M508.301147,321.306122 
	C509.816467,324.134521 511.346252,327.329071 512.854919,330.910706 
	C511.327728,328.089294 509.821655,324.880768 508.301147,321.306122 
z"/>
<path fill="#B89E5C" opacity="1.000000" stroke="none" 
	d="
M492.507965,283.266113 
	C493.962860,286.102844 495.430817,289.299164 496.871216,292.882812 
	C495.402771,290.055328 493.961884,286.840515 492.507965,283.266113 
z"/>
<path fill="#B79D5C" opacity="1.000000" stroke="none" 
	d="
M532.753723,283.685059 
	C531.243103,280.809631 529.731018,277.563232 528.246582,273.925049 
	C529.766968,276.793579 531.259583,280.053864 532.753723,283.685059 
z"/>
<path fill="#B79D5C" opacity="1.000000" stroke="none" 
	d="
M538.607178,297.715088 
	C537.123901,294.883362 535.614380,291.691040 534.131958,288.110352 
	C535.633057,290.932800 537.106934,294.143677 538.607178,297.715088 
z"/>
<path fill="#B89E5C" opacity="1.000000" stroke="none" 
	d="
M513.042603,332.374084 
	C514.365540,334.807922 515.672852,337.620636 516.930420,340.816956 
	C515.596130,338.384705 514.311646,335.568848 513.042603,332.374084 
z"/>
<path fill="#B79D5C" opacity="1.000000" stroke="none" 
	d="
M522.762451,259.688904 
	C521.519287,257.536774 520.281860,255.020370 519.100098,252.118912 
	C520.359924,254.264130 521.564087,256.794403 522.762451,259.688904 
z"/>
<path fill="#B69C5A" opacity="1.000000" stroke="none" 
	d="
M590.814636,479.621002 
	C591.037415,477.334991 591.494324,474.762390 592.252441,472.047333 
	C592.052063,474.381378 591.550415,476.857880 590.814636,479.621002 
z"/>
<path fill="#B89E5C" opacity="1.000000" stroke="none" 
	d="
M503.277527,309.304138 
	C504.502411,311.456512 505.733582,313.972107 506.909790,316.872284 
	C505.664459,314.727020 504.474121,312.197174 503.277527,309.304138 
z"/>
<path fill="#B89E5C" opacity="1.000000" stroke="none" 
	d="
M447.727661,203.567810 
	C450.253876,204.296021 453.036713,205.266678 455.920898,206.572891 
	C453.342926,205.875717 450.663605,204.842972 447.727661,203.567810 
z"/>
<path fill="#B89E5C" opacity="1.000000" stroke="none" 
	d="
M468.101898,225.338898 
	C469.363617,227.517548 470.603088,230.066025 471.808685,233.004425 
	C470.543091,230.832474 469.311401,228.270599 468.101898,225.338898 
z"/>
<path fill="#B79D5C" opacity="1.000000" stroke="none" 
	d="
M516.564026,244.717834 
	C515.408386,242.536499 514.265625,239.994354 513.152954,237.070068 
	C514.314331,239.244293 515.445618,241.800659 516.564026,244.717834 
z"/>
<path fill="#B69C5A" opacity="1.000000" stroke="none" 
	d="
M597.562134,438.734009 
	C596.452759,436.832397 595.317505,434.576508 594.224487,431.938660 
	C595.356567,433.831055 596.446350,436.105438 597.562134,438.734009 
z"/>
<path fill="#B89E5C" opacity="1.000000" stroke="none" 
	d="
M472.731781,444.690460 
	C471.528534,442.529175 470.313202,440.004730 469.130249,437.096863 
	C470.348328,439.251373 471.534027,441.789337 472.731781,444.690460 
z"/>
<path fill="#9E8952" opacity="1.000000" stroke="none" 
	d="
M361.841949,472.328369 
	C362.266052,474.202576 362.577850,476.411163 362.733978,479.041046 
	C362.295410,477.195801 362.012512,474.929260 361.841949,472.328369 
z"/>
<path fill="#9E8952" opacity="1.000000" stroke="none" 
	d="
M360.717926,217.307098 
	C361.204529,219.173538 361.573517,221.370758 361.786194,223.992676 
	C361.286713,222.157532 360.943512,219.897690 360.717926,217.307098 
z"/>
<path fill="#B99F5D" opacity="1.000000" stroke="none" 
	d="
M90.254723,258.409943 
	C90.545753,260.162018 90.669464,262.218384 90.610825,264.574249 
	C90.314781,262.820557 90.201088,260.767426 90.254723,258.409943 
z"/>
<path fill="#9E8952" opacity="1.000000" stroke="none" 
	d="
M368.375244,512.238586 
	C369.521637,514.442200 370.671814,517.012268 371.773254,519.963867 
	C370.609344,517.765320 369.494171,515.185181 368.375244,512.238586 
z"/>
<path fill="#B89E5C" opacity="1.000000" stroke="none" 
	d="
M473.504822,238.263428 
	C474.597290,240.148575 475.728271,242.380463 476.822876,244.990265 
	C475.705444,243.115494 474.624420,240.862823 473.504822,238.263428 
z"/>
<path fill="#B89E5C" opacity="1.000000" stroke="none" 
	d="
M466.506592,429.737793 
	C465.387726,427.853058 464.275726,425.615234 463.186218,423.003296 
	C464.310272,424.881073 465.411865,427.132874 466.506592,429.737793 
z"/>
<path fill="#B89E5C" opacity="1.000000" stroke="none" 
	d="
M518.367554,345.290588 
	C519.504150,347.200317 520.650818,349.465820 521.751343,352.112915 
	C520.596008,350.211823 519.486816,347.929108 518.367554,345.290588 
z"/>
<path fill="#9E8952" opacity="1.000000" stroke="none" 
	d="
M234.564819,219.125031 
	C234.829391,216.961212 235.333755,214.544403 236.155258,211.976059 
	C235.916473,214.173691 235.360550,216.522873 234.564819,219.125031 
z"/>
<path fill="#B89E5C" opacity="1.000000" stroke="none" 
	d="
M453.433289,494.277557 
	C454.548859,496.176422 455.689392,498.428772 456.787598,501.059692 
	C455.649597,499.169189 454.553894,496.900116 453.433289,494.277557 
z"/>
<path fill="#B89E5C" opacity="1.000000" stroke="none" 
	d="
M474.558929,471.273804 
	C475.211884,469.046173 476.140686,466.613586 477.383698,464.057617 
	C476.743530,466.312439 475.789154,468.690613 474.558929,471.273804 
z"/>
<path fill="#9E8952" opacity="1.000000" stroke="none" 
	d="
M373.282471,524.243103 
	C374.497131,525.709412 375.736725,527.517273 376.980316,529.674683 
	C375.758667,528.210999 374.533051,526.397827 373.282471,524.243103 
z"/>
<path fill="#9E8952" opacity="1.000000" stroke="none" 
	d="
M235.413361,459.807739 
	C234.882050,458.253784 234.464844,456.323517 234.187744,454.006775 
	C234.727707,455.557312 235.127579,457.494385 235.413361,459.807739 
z"/>
<path fill="#9E8952" opacity="1.000000" stroke="none" 
	d="
M348.833679,202.559937 
	C350.729095,203.266510 352.808929,204.248596 354.972565,205.563843 
	C353.043610,204.876480 351.030853,203.855957 348.833679,202.559937 
z"/>
<path fill="#B79D5C" opacity="1.000000" stroke="none" 
	d="
M512.744507,234.694580 
	C511.926056,233.246628 511.120392,231.435928 510.480896,229.359329 
	C511.350494,230.839569 512.053955,232.585709 512.744507,234.694580 
z"/>
<path fill="#B99F5C" opacity="1.000000" stroke="none" 
	d="
M101.257874,230.785828 
	C100.307945,230.997681 99.630623,230.999298 98.614647,231.001801 
	C98.743057,230.129791 99.210121,229.256851 100.378357,228.232483 
	C101.680145,228.116760 102.280754,228.152451 102.881363,228.188126 
	C102.431068,228.983948 101.980774,229.779770 101.257874,230.785828 
z"/>
<path fill="#B79D5C" opacity="1.000000" stroke="none" 
	d="
M509.528198,217.233505 
	C509.824158,215.397919 510.339630,213.295898 511.170410,211.047577 
	C510.906403,212.923218 510.327087,214.945145 509.528198,217.233505 
z"/>
<path fill="#B89E5C" opacity="1.000000" stroke="none" 
	d="
M460.326904,502.928040 
	C460.732300,501.366272 461.476868,499.774139 462.529724,498.071991 
	C462.113983,499.607208 461.390015,501.252441 460.326904,502.928040 
z"/>
<path fill="#B79D5C" opacity="1.000000" stroke="none" 
	d="
M510.285767,226.758148 
	C509.803741,225.511337 509.419708,223.909103 509.148987,221.933044 
	C509.636078,223.173721 510.009888,224.788208 510.285767,226.758148 
z"/>
<path fill="#9E8952" opacity="1.000000" stroke="none" 
	d="
M379.283295,533.222656 
	C380.473999,534.028076 381.715912,535.150146 383.002930,536.594604 
	C381.810211,535.791138 380.572357,534.665161 379.283295,533.222656 
z"/>
<path fill="#B69C5A" opacity="1.000000" stroke="none" 
	d="
M589.466309,487.124390 
	C589.404358,485.720001 589.560974,484.035400 589.982605,482.113373 
	C590.059998,483.532043 589.872437,485.188110 589.466309,487.124390 
z"/>
<path fill="#9E8952" opacity="1.000000" stroke="none" 
	d="
M237.836578,466.708801 
	C237.041550,465.561584 236.220520,464.063721 235.546127,462.310150 
	C236.398712,463.489014 237.104645,464.923615 237.836578,466.708801 
z"/>
<path fill="#B89E5C" opacity="1.000000" stroke="none" 
	d="
M440.723785,200.947144 
	C441.535858,201.520126 442.078857,202.059967 442.815369,202.813416 
	C441.321838,203.332779 439.331055,204.005737 440.723785,200.947144 
z"/>
<path fill="#B89E5C" opacity="1.000000" stroke="none" 
	d="
M484.423798,264.255310 
	C485.264282,265.477692 486.079712,267.040253 486.857239,268.960449 
	C486.012482,267.743896 485.205597,266.169678 484.423798,264.255310 
z"/>
<path fill="#B89E5C" opacity="1.000000" stroke="none" 
	d="
M489.426575,276.252350 
	C490.266937,277.475555 491.080963,279.038361 491.856934,280.958221 
	C491.012634,279.740845 490.206390,278.166412 489.426575,276.252350 
z"/>
<path fill="#B99F5D" opacity="1.000000" stroke="none" 
	d="
M96.510010,279.800110 
	C95.723656,278.482819 94.958168,276.866119 94.242302,274.846252 
	C95.038246,276.128937 95.784554,277.814819 96.510010,279.800110 
z"/>
<path fill="#B79D5C" opacity="1.000000" stroke="none" 
	d="
M526.539551,268.753418 
	C525.709656,267.534241 524.898743,265.976776 524.128052,264.063599 
	C524.965027,265.276947 525.761719,266.846039 526.539551,268.753418 
z"/>
<path fill="#B89E5C" opacity="1.000000" stroke="none" 
	d="
M479.404419,252.258514 
	C480.246948,253.497635 481.060791,255.077957 481.829895,257.019287 
	C480.982025,255.786728 480.178864,254.193222 479.404419,252.258514 
z"/>
<path fill="#9E8952" opacity="1.000000" stroke="none" 
	d="
M364.356659,496.211578 
	C364.880463,497.050690 365.312805,498.243225 365.571045,499.679626 
	C365.019684,498.804016 364.642456,497.684540 364.356659,496.211578 
z"/>
<path fill="#B79D5C" opacity="1.000000" stroke="none" 
	d="
M599.242371,210.555481 
	C600.113220,209.746811 601.297119,208.901596 602.817139,208.068298 
	C601.953918,208.893127 600.754700,209.706024 599.242371,210.555481 
z"/>
<path fill="#B89E5C" opacity="1.000000" stroke="none" 
	d="
M461.565369,213.197342 
	C462.389526,214.018646 463.241058,215.145248 464.063232,216.599915 
	C463.220154,215.786194 462.406464,214.644424 461.565369,213.197342 
z"/>
<path fill="#B89E5C" opacity="1.000000" stroke="none" 
	d="
M464.479523,218.231155 
	C465.282837,219.141312 466.096252,220.371979 466.875244,221.942444 
	C466.057068,221.038727 465.273346,219.795197 464.479523,218.231155 
z"/>
<path fill="#B59B5A" opacity="1.000000" stroke="none" 
	d="
M588.239441,514.481689 
	C588.034607,513.687195 587.903625,512.684448 587.864014,511.382996 
	C588.074707,512.147278 588.193970,513.210388 588.239441,514.481689 
z"/>
<path fill="#B79D5C" opacity="1.000000" stroke="none" 
	d="
M574.436279,241.141663 
	C574.735901,239.947571 575.289429,238.562012 576.136108,237.041168 
	C575.849609,238.253983 575.269897,239.602081 574.436279,241.141663 
z"/>
<path fill="#9E8952" opacity="1.000000" stroke="none" 
	d="
M363.313385,489.210785 
	C363.774536,490.068604 364.134094,491.273468 364.320740,492.725647 
	C363.835815,491.834564 363.523804,490.696198 363.313385,489.210785 
z"/>
<path fill="#B79D5C" opacity="1.000000" stroke="none" 
	d="
M569.364624,252.119507 
	C569.466980,251.122665 569.741272,249.891373 570.222412,248.443542 
	C570.131653,249.446350 569.834106,250.665695 569.364624,252.119507 
z"/>
<path fill="#B99F5D" opacity="1.000000" stroke="none" 
	d="
M91.521194,248.772522 
	C91.609093,249.879791 91.473450,251.252121 91.084442,252.859680 
	C90.986595,251.742447 91.142128,250.390030 91.521194,248.772522 
z"/>
<path fill="#B79D5C" opacity="1.000000" stroke="none" 
	d="
M614.244263,204.345612 
	C615.220703,203.871552 616.537537,203.490570 618.213867,203.220764 
	C617.243774,203.700851 615.914246,204.069763 614.244263,204.345612 
z"/>
<path fill="#B69C5A" opacity="1.000000" stroke="none" 
	d="
M588.082031,493.716187 
	C587.937256,492.915680 587.907288,491.893799 588.023804,490.602295 
	C588.179138,491.386749 588.187988,492.440765 588.082031,493.716187 
z"/>
<path fill="#9E8952" opacity="1.000000" stroke="none" 
	d="
M365.622375,502.127106 
	C366.127625,502.784851 366.522888,503.752075 366.813751,505.036530 
	C366.310364,504.381378 365.911377,503.408997 365.622375,502.127106 
z"/>
<path fill="#B79D5C" opacity="1.000000" stroke="none" 
	d="
M560.701538,203.530121 
	C561.528015,203.419388 562.597534,203.526001 563.885376,203.883087 
	C563.050598,204.004837 561.997559,203.876160 560.701538,203.530121 
z"/>
<path fill="#B99F5D" opacity="1.000000" stroke="none" 
	d="
M103.015396,228.126343 
	C102.280754,228.152451 101.680145,228.116760 100.628525,228.066879 
	C100.528824,227.415802 100.880127,226.778915 101.472809,226.003632 
	C102.075798,226.210785 102.437386,226.556351 103.019196,227.206543 
	C103.331406,227.715469 103.301414,227.899948 103.015396,228.126343 
z"/>
<path fill="#B89E5C" opacity="1.000000" stroke="none" 
	d="
M520.197510,204.224274 
	C520.861450,203.771576 521.831116,203.408920 523.118408,203.153351 
	C522.458435,203.611740 521.480835,203.963013 520.197510,204.224274 
z"/>
<path fill="#B99F5D" opacity="1.000000" stroke="none" 
	d="
M90.768723,270.225006 
	C91.206459,270.914978 91.540672,271.918488 91.776093,273.250000 
	C91.339935,272.564850 91.002563,271.551697 90.768723,270.225006 
z"/>
<path fill="#9E8952" opacity="1.000000" stroke="none" 
	d="
M359.271942,212.215027 
	C359.820068,212.854523 360.324066,213.818863 360.705719,215.119873 
	C360.131500,214.484344 359.679657,213.512115 359.271942,212.215027 
z"/>
<path fill="#B69C5A" opacity="1.000000" stroke="none" 
	d="
M598.347961,454.142639 
	C598.290283,453.642700 598.441345,453.046906 598.812988,452.221649 
	C598.874634,452.677063 598.715698,453.361969 598.347961,454.142639 
z"/>
<path fill="#9E8952" opacity="1.000000" stroke="none" 
	d="
M366.906921,507.201324 
	C367.316772,507.544830 367.621887,508.087372 367.862244,508.945374 
	C367.465729,508.640686 367.133942,508.020508 366.906921,507.201324 
z"/>
<path fill="#B99F5D" opacity="1.000000" stroke="none" 
	d="
M99.376663,292.225342 
	C99.876648,292.468994 100.397163,292.998779 100.929413,293.824524 
	C100.426491,293.584167 99.911842,293.047852 99.376663,292.225342 
z"/>
<path fill="#B69C5A" opacity="1.000000" stroke="none" 
	d="
M666.733032,341.468201 
	C667.067627,340.125488 667.850037,339.193848 668.632507,338.262207 
	C669.040710,338.475677 669.448975,338.689148 669.857178,338.902588 
	C669.501038,339.954437 669.144836,341.006287 668.450623,342.359436 
	C667.802063,342.400238 667.491516,342.139771 666.733032,341.468201 
z"/>
<path fill="#B79D5C" opacity="1.000000" stroke="none" 
	d="
M631.237305,202.953094 
	C630.986145,202.481628 630.990601,202.039047 631.006714,201.264679 
	C631.176514,201.615921 631.334656,202.298965 631.237305,202.953094 
z"/>
<path fill="#B69C5A" opacity="1.000000" stroke="none" 
	d="
M673.254639,335.013672 
	C672.858154,335.761261 672.461670,336.508820 671.325806,337.139343 
	C670.232910,336.816467 669.879395,336.610626 669.525879,336.404785 
	C669.730713,336.057159 669.935547,335.709564 670.830200,335.192871 
	C672.098206,335.020386 672.676453,335.017029 673.254639,335.013672 
z"/>
<path fill="#B79D5C" opacity="1.000000" stroke="none" 
	d="
M610.180054,205.381378 
	C610.456421,204.992447 611.010376,204.670624 611.731445,204.490906 
	C611.418213,204.904831 610.937866,205.176651 610.180054,205.381378 
z"/>
<path fill="#B89E5C" opacity="1.000000" stroke="none" 
	d="
M459.306976,210.227539 
	C459.823669,210.457260 460.380066,210.974503 460.941956,211.796722 
	C460.413879,211.572815 459.880280,211.043915 459.306976,210.227539 
z"/>
<path fill="#AA9154" opacity="1.000000" stroke="none" 
	d="
M674.733765,329.151550 
	C675.158752,329.142273 675.612732,329.144348 676.747742,329.156738 
	C676.897095,330.036072 676.365356,330.905151 675.427124,331.246460 
	C674.926270,330.233337 674.831970,329.747986 674.737671,329.262634 
	C674.737671,329.262634 674.762756,329.162933 674.733765,329.151550 
z"/>
<path fill="#B79D5C" opacity="1.000000" stroke="none" 
	d="
M585.315552,222.974274 
	C585.442993,222.421753 585.844849,221.759644 586.543213,221.017059 
	C586.423157,221.579269 586.006592,222.221970 585.315552,222.974274 
z"/>
<path fill="#B99F5D" opacity="1.000000" stroke="none" 
	d="
M92.534882,244.635681 
	C92.630386,245.173401 92.516945,245.831070 92.181732,246.750641 
	C92.081955,246.260239 92.203957,245.507919 92.534882,244.635681 
z"/>
<path fill="#BDA25D" opacity="1.000000" stroke="none" 
	d="
M689.444702,311.206665 
	C689.491333,310.624573 689.803650,309.898499 690.408325,309.059998 
	C690.370605,309.652588 690.040466,310.357635 689.444702,311.206665 
z"/>
<path fill="#BDA25D" opacity="1.000000" stroke="none" 
	d="
M687.547119,307.760925 
	C687.548889,308.342072 687.294434,309.070435 686.771362,309.938202 
	C686.765381,309.354462 687.028076,308.631317 687.547119,307.760925 
z"/>
<path fill="#BDA25D" opacity="1.000000" stroke="none" 
	d="
M690.574707,301.791412 
	C690.571289,302.345947 690.338806,303.080292 689.832458,303.949280 
	C689.820984,303.379669 690.083313,302.675446 690.574707,301.791412 
z"/>
<path fill="#DEC072" opacity="1.000000" stroke="none" 
	d="
M535.234619,201.516449 
	C534.092529,201.728699 532.782349,201.544861 531.175842,201.088379 
	C532.275208,200.917282 533.670898,201.018814 535.234619,201.516449 
z"/>
<path fill="#B99F5D" opacity="1.000000" stroke="none" 
	d="
M94.436829,283.227417 
	C94.882278,282.848328 95.316032,282.770050 96.050217,282.532532 
	C96.350655,282.373260 96.387558,282.419952 96.422783,282.414703 
	C96.327682,282.923218 96.197357,283.436951 95.892220,284.726440 
	C95.286644,284.844177 94.855888,284.186188 94.436829,283.227417 
z"/>
<path fill="#B99F5D" opacity="1.000000" stroke="none" 
	d="
M94.126266,272.781830 
	C93.777428,272.362671 93.508286,271.713715 93.313026,270.709839 
	C93.659927,271.087280 93.932945,271.819672 94.126266,272.781830 
z"/>
<path fill="#B99F5D" opacity="1.000000" stroke="none" 
	d="
M93.560333,250.473938 
	C93.432198,249.927979 93.505859,249.241379 93.798325,248.274780 
	C93.932129,248.774292 93.847130,249.553802 93.560333,250.473938 
z"/>
<path fill="#B79D5C" opacity="1.000000" stroke="none" 
	d="
M548.628906,200.945755 
	C548.971863,201.336685 548.984314,201.800354 549.003662,202.611649 
	C548.773193,202.312347 548.535706,201.665405 548.628906,200.945755 
z"/>
<path fill="#BDA25D" opacity="1.000000" stroke="none" 
	d="
M674.340942,329.570190 
	C674.831970,329.747986 674.926270,330.233337 675.106079,331.460327 
	C674.542358,332.311127 673.893127,332.420258 673.243896,332.529388 
	C673.477356,331.645508 673.710754,330.761597 674.340942,329.570190 
z"/>
<path fill="#BDA25D" opacity="1.000000" stroke="none" 
	d="
M673.518311,334.467773 
	C672.676453,335.017029 672.098206,335.020386 671.085327,335.025421 
	C671.694458,334.658691 672.738220,334.290283 673.518311,334.467773 
z"/>
<path fill="#B89E5C" opacity="1.000000" stroke="none" 
	d="
M463.642151,496.406677 
	C463.480591,496.207733 463.574768,495.824310 463.881561,495.226318 
	C464.028717,495.415192 463.963318,495.818726 463.642151,496.406677 
z"/>
<path fill="#B79D5C" opacity="1.000000" stroke="none" 
	d="
M568.151733,253.911469 
	C567.936218,253.762848 567.993530,253.483185 568.397583,253.125687 
	C568.466614,253.253403 568.360046,253.497589 568.151733,253.911469 
z"/>
<path fill="#B89E5C" opacity="1.000000" stroke="none" 
	d="
M476.949219,246.322418 
	C477.201569,246.338043 477.420135,246.663849 477.640137,247.288666 
	C477.399506,247.269318 477.157501,246.950974 476.949219,246.322418 
z"/>
<path fill="#D9BC6F" opacity="1.000000" stroke="none" 
	d="
M685.750000,314.750000 
	C685.466736,314.700012 685.433411,314.399994 685.400024,314.099976 
	C685.600037,314.233307 685.800049,314.366638 685.750000,314.750000 
z"/>
<path fill="#B89E5C" opacity="1.000000" stroke="none" 
	d="
M456.940613,502.318787 
	C457.193359,502.211487 457.460480,502.407349 457.862579,502.814575 
	C457.650055,502.891296 457.302490,502.756622 456.940613,502.318787 
z"/>
<path fill="#B79D5C" opacity="1.000000" stroke="none" 
	d="
M572.122009,244.899933 
	C571.900269,244.788376 571.917175,244.532166 572.234985,244.164886 
	C572.339600,244.279510 572.281189,244.513321 572.122009,244.899933 
z"/>
<path fill="#D9BC6F" opacity="1.000000" stroke="none" 
	d="
M685.745972,316.188171 
	C685.066284,316.647339 684.554199,316.352875 683.703003,315.761475 
	C684.213745,315.454559 685.063721,315.444519 685.745972,316.188171 
z"/>
<path fill="#9E8952" opacity="1.000000" stroke="none" 
	d="
M357.082672,208.241364 
	C357.333130,208.180481 357.611053,208.381180 357.906860,208.848434 
	C357.653198,208.910980 357.381683,208.706970 357.082672,208.241364 
z"/>
<path fill="#B69C5A" opacity="1.000000" stroke="none" 
	d="
M671.095886,337.364136 
	C671.428528,338.033813 671.251709,338.361633 670.434448,338.449402 
	C669.500366,337.969604 669.206665,337.729919 668.912964,337.490265 
	C668.891541,337.180969 668.979614,336.906891 669.351501,336.536377 
	C669.879395,336.610626 670.232910,336.816467 671.095886,337.364136 
z"/>
<path fill="#B69C5A" opacity="1.000000" stroke="none" 
	d="
M670.200195,338.607361 
	C669.975647,339.303131 669.344910,339.600891 668.714233,339.898621 
	C668.560730,339.362457 668.407166,338.826294 668.583313,337.890198 
	C669.206665,337.729919 669.500366,337.969604 670.200195,338.607361 
z"/>
</svg>